<svg xmlns="http://www.w3.org/2000/svg" xmlns:xlink="http://www.w3.org/1999/xlink" width="500" zoomAndPan="magnify" viewBox="0 0 375 374.999991" height="500" preserveAspectRatio="xMidYMid meet" version="1.0"><defs><clipPath id="a96cb1cd61"><path d="M 103 47 L 256 47 L 256 318 L 103 318 Z M 103 47 " clip-rule="nonzero"/></clipPath><clipPath id="08b20fb6c3"><path d="M 56.421875 246.917969 L 199.320312 42.085938 L 342.640625 142.070312 L 199.742188 346.902344 Z M 56.421875 246.917969 " clip-rule="nonzero"/></clipPath><clipPath id="87a0f9340f"><path d="M 50.84375 254.914062 L 199.320312 42.085938 L 358.019531 152.800781 L 209.542969 365.625 Z M 50.84375 254.914062 " clip-rule="nonzero"/></clipPath><clipPath id="ff96c4f5a2"><path d="M 56.90625 246.222656 L 199.339844 42.058594 L 342.371094 141.839844 L 199.9375 346.003906 Z M 56.90625 246.222656 " clip-rule="nonzero"/></clipPath><clipPath id="22856a7ca7"><path d="M 56.90625 246.222656 L 199.195312 42.265625 L 342.222656 142.046875 L 199.9375 346.003906 Z M 56.90625 246.222656 " clip-rule="nonzero"/></clipPath><clipPath id="8ed6b3785b"><path d="M 163 105 L 211 105 L 211 347 L 163 347 Z M 163 105 " clip-rule="nonzero"/></clipPath><clipPath id="b7125e3ec6"><path d="M 56.421875 246.917969 L 199.320312 42.085938 L 342.640625 142.070312 L 199.742188 346.902344 Z M 56.421875 246.917969 " clip-rule="nonzero"/></clipPath><clipPath id="9353490560"><path d="M 50.84375 254.914062 L 199.320312 42.085938 L 358.019531 152.800781 L 209.542969 365.625 Z M 50.84375 254.914062 " clip-rule="nonzero"/></clipPath><clipPath id="3185849e19"><path d="M 76.824219 272.980469 L 194.3125 104.574219 L 326.960938 197.113281 L 209.472656 365.519531 Z M 76.824219 272.980469 " clip-rule="nonzero"/></clipPath><clipPath id="54f5027246"><path d="M 76.824219 272.980469 L 194.3125 104.574219 L 326.804688 197.003906 L 209.320312 365.410156 Z M 76.824219 272.980469 " clip-rule="nonzero"/></clipPath><clipPath id="b4dae91d53"><path d="M 163 143 L 221 143 L 221 212 L 163 212 Z M 163 143 " clip-rule="nonzero"/></clipPath><clipPath id="cf08de9a2f"><path d="M 56.421875 246.917969 L 199.320312 42.085938 L 342.640625 142.070312 L 199.742188 346.902344 Z M 56.421875 246.917969 " clip-rule="nonzero"/></clipPath><clipPath id="bc0d674778"><path d="M 50.84375 254.914062 L 199.320312 42.085938 L 358.019531 152.800781 L 209.542969 365.625 Z M 50.84375 254.914062 " clip-rule="nonzero"/></clipPath><clipPath id="00acc4997f"><path d="M 167 197 L 227 197 L 227 266 L 167 266 Z M 167 197 " clip-rule="nonzero"/></clipPath><clipPath id="69e5aed538"><path d="M 56.421875 246.917969 L 199.320312 42.085938 L 342.640625 142.070312 L 199.742188 346.902344 Z M 56.421875 246.917969 " clip-rule="nonzero"/></clipPath><clipPath id="47fce837ea"><path d="M 50.84375 254.914062 L 199.320312 42.085938 L 358.019531 152.800781 L 209.542969 365.625 Z M 50.84375 254.914062 " clip-rule="nonzero"/></clipPath><clipPath id="32daf1c9d7"><path d="M 140 143 L 171 143 L 171 186 L 140 186 Z M 140 143 " clip-rule="nonzero"/></clipPath><clipPath id="5e51647a80"><path d="M 56.421875 246.917969 L 199.320312 42.085938 L 342.640625 142.070312 L 199.742188 346.902344 Z M 56.421875 246.917969 " clip-rule="nonzero"/></clipPath><clipPath id="3e5046e964"><path d="M 50.84375 254.914062 L 199.320312 42.085938 L 358.019531 152.800781 L 209.542969 365.625 Z M 50.84375 254.914062 " clip-rule="nonzero"/></clipPath><clipPath id="9131f7a330"><path d="M 129 199 L 169 199 L 169 251 L 129 251 Z M 129 199 " clip-rule="nonzero"/></clipPath><clipPath id="6f3b5a32a9"><path d="M 56.421875 246.917969 L 199.320312 42.085938 L 342.640625 142.070312 L 199.742188 346.902344 Z M 56.421875 246.917969 " clip-rule="nonzero"/></clipPath><clipPath id="9db73d4808"><path d="M 50.84375 254.914062 L 199.320312 42.085938 L 358.019531 152.800781 L 209.542969 365.625 Z M 50.84375 254.914062 " clip-rule="nonzero"/></clipPath><clipPath id="2b66075e68"><path d="M 116.726562 179 L 138 179 L 138 193 L 116.726562 193 Z M 116.726562 179 " clip-rule="nonzero"/></clipPath></defs><rect x="-37.5" width="450" fill="#ffffff" y="-37.499999" height="449.999989" fill-opacity="1"/><rect x="-37.5" width="450" fill="#ffffff" y="-37.499999" height="449.999989" fill-opacity="1"/><g clip-path="url(#a96cb1cd61)"><g clip-path="url(#08b20fb6c3)"><g clip-path="url(#87a0f9340f)"><g clip-path="url(#ff96c4f5a2)"><g clip-path="url(#22856a7ca7)"><path fill="#558b2f" d="M 207.378906 47.972656 C 211.078125 101.082031 240.574219 147.503906 249.40625 185.050781 C 305.421875 423.292969 -70.9375 317.339844 207.378906 47.972656 " fill-opacity="1" fill-rule="evenodd"/></g></g></g></g></g><g clip-path="url(#8ed6b3785b)"><g clip-path="url(#b7125e3ec6)"><g clip-path="url(#9353490560)"><g clip-path="url(#3185849e19)"><g clip-path="url(#54f5027246)"><path fill="#558b2f" d="M 198.199219 357.652344 C 179.546875 304.464844 154.808594 254.734375 165.707031 187.921875 C 170.121094 160.847656 169.320312 154.21875 179.816406 127.796875 L 179.707031 128.085938 C 185.023438 117.761719 188.59375 114.402344 195.613281 105.84375 C 191.566406 113.886719 194.714844 108.324219 188.75 117.355469 C 174.390625 139.117188 174.011719 163.554688 170.648438 188.609375 C 161.1875 259.097656 190.421875 305.253906 210.304688 363.996094 L 198.199219 357.652344 " fill-opacity="1" fill-rule="evenodd"/></g></g></g></g></g><g clip-path="url(#b4dae91d53)"><g clip-path="url(#cf08de9a2f)"><g clip-path="url(#bc0d674778)"><path fill="#558b2f" d="M 163.851562 209.273438 C 165.863281 205.367188 168.066406 201.453125 170.492188 197.523438 C 182.664062 177.800781 184.171875 172.367188 200.886719 155.113281 L 200.707031 155.304688 C 208.183594 148.957031 212.058594 147.476562 220.292969 143.058594 C 214.546875 148.035156 218.792969 144.703125 211.226562 149.839844 C 193 162.207031 184.828125 181.171875 174.132812 199.65625 C 171.78125 203.714844 169.664062 207.738281 167.753906 211.722656 C 166.816406 210.441406 165.414062 209.566406 163.851562 209.273438 " fill-opacity="1" fill-rule="evenodd"/></g></g></g><g clip-path="url(#00acc4997f)"><g clip-path="url(#69e5aed538)"><g clip-path="url(#47fce837ea)"><path fill="#558b2f" d="M 167.003906 262.816406 C 167.136719 262.601562 167.261719 262.390625 167.394531 262.175781 C 181.800781 238.832031 183.589844 232.398438 203.367188 211.980469 L 203.15625 212.203125 C 212.007812 204.6875 216.589844 202.941406 226.339844 197.707031 C 219.535156 203.597656 224.566406 199.65625 215.605469 205.734375 C 194.035156 220.375 184.363281 242.820312 171.699219 264.699219 L 171.433594 265.171875 C 170.28125 263.898438 168.707031 263.0625 167.003906 262.816406 " fill-opacity="1" fill-rule="evenodd"/></g></g></g><g clip-path="url(#32daf1c9d7)"><g clip-path="url(#5e51647a80)"><g clip-path="url(#3e5046e964)"><path fill="#558b2f" d="M 170.957031 181.882812 C 169.929688 179.132812 168.789062 176.441406 167.515625 173.820312 C 161.125 160.636719 160.464844 156.363281 151.25 146.953125 L 151.347656 147.058594 C 147.160156 144.0625 144.910156 144.109375 140.183594 143.078125 C 143.394531 145.46875 141.003906 144.007812 145.300781 145.902344 C 155.644531 150.46875 159.675781 164.375 165.246094 176.972656 C 166.464844 179.742188 167.554688 182.554688 168.515625 185.410156 C 169.132812 183.949219 170.011719 182.683594 170.957031 181.882812 " fill-opacity="1" fill-rule="evenodd"/></g></g></g><g clip-path="url(#9131f7a330)"><g clip-path="url(#6f3b5a32a9)"><g clip-path="url(#9db73d4808)"><path fill="#558b2f" d="M 168.691406 247.179688 C 168.609375 247.007812 168.53125 246.839844 168.445312 246.667969 C 159.359375 228.082031 158.382812 222.46875 145.402344 207.820312 L 145.542969 207.980469 C 139.664062 202.941406 136.527344 202.335938 129.921875 199.628906 C 134.433594 203.609375 131.082031 201.050781 137.09375 204.726562 C 151.582031 213.574219 157.390625 232.382812 165.320312 249.992188 L 165.488281 250.371094 C 166.351562 248.925781 167.488281 247.785156 168.691406 247.179688 " fill-opacity="1" fill-rule="evenodd"/></g></g></g><path fill="#ffffff" d="M 144.3125 253.9375 C 166.980469 253.9375 189.636719 253.9375 212.363281 253.9375 C 212.363281 251.773438 212.363281 249.664062 212.363281 247.429688 C 189.707031 247.429688 167.039062 247.429688 144.3125 247.429688 C 144.3125 249.585938 144.3125 251.691406 144.3125 253.9375 Z M 205.535156 240.320312 C 205.535156 240.320312 205.671875 217.351562 205.535156 206.398438 C 205.375 194.792969 200.210938 186.097656 189.445312 181.445312 C 174.339844 174.914062 155.484375 182.351562 151.652344 200.605469 C 151.28125 202.375 151.113281 204.179688 151.113281 206 C 151.113281 217.011719 151.191406 240.328125 151.191406 240.328125 C 169.175781 240.328125 205.535156 240.320312 205.535156 240.320312 Z M 198.785156 261.925781 C 198.785156 270.554688 198.792969 279.171875 198.792969 287.800781 C 198.792969 293.550781 198.792969 299.304688 198.773438 305.042969 C 198.761719 306.851562 197.714844 308.199219 196.128906 308.570312 C 194.660156 308.917969 193.191406 308.210938 192.363281 306.8125 C 191.894531 306.023438 191.992188 305.164062 191.992188 304.324219 C 191.984375 290.375 191.984375 276.425781 191.972656 262.476562 C 191.972656 262.015625 192.125 261.519531 191.8125 261.109375 C 182.785156 261.109375 173.78125 261.109375 164.683594 261.109375 C 164.683594 264.960938 164.683594 268.6875 164.683594 272.402344 C 164.683594 280.917969 164.664062 289.4375 164.691406 297.953125 C 164.703125 299.550781 164.195312 300.78125 162.753906 301.5 C 160.390625 302.65625 157.894531 300.929688 157.894531 298.105469 C 157.871094 290.226562 157.894531 282.347656 157.894531 274.46875 C 157.894531 270.015625 157.894531 265.550781 157.894531 260.96875 C 157.234375 260.96875 156.714844 260.96875 156.195312 260.96875 C 151.292969 260.96875 146.398438 260.976562 141.507812 260.96875 C 138.699219 260.957031 137.453125 259.671875 137.441406 256.84375 C 137.441406 252.640625 137.433594 248.4375 137.453125 244.222656 C 137.460938 241.847656 138.730469 240.578125 141.078125 240.519531 C 142.074219 240.5 143.074219 240.519531 144.222656 240.519531 C 144.222656 239.777344 144.222656 239.210938 144.222656 238.632812 C 144.222656 230.753906 144.183594 222.875 144.234375 214.996094 C 144.273438 210.210938 143.964844 205.429688 144.773438 200.667969 C 147.46875 184.71875 162.644531 172.027344 178.773438 172.308594 C 197.066406 172.617188 212.453125 188.304688 212.453125 206.609375 C 212.445312 217.410156 212.582031 240.476562 212.582031 240.476562 C 212.582031 240.476562 214.339844 240.5 215.179688 240.507812 C 218.046875 240.539062 219.222656 241.726562 219.234375 244.613281 C 219.242188 248.554688 219.222656 252.492188 219.222656 256.433594 C 219.234375 259.851562 218.09375 260.96875 214.621094 260.96875 C 209.40625 260.96875 204.1875 260.96875 198.785156 260.96875 C 198.785156 261.417969 198.785156 261.667969 198.785156 261.925781 " fill-opacity="1" fill-rule="nonzero"/><g clip-path="url(#2b66075e68)"><path fill="#ffffff" d="M 133.925781 192.757812 C 133.4375 192.777344 132.839844 192.609375 132.25 192.316406 C 127.894531 190.132812 123.523438 187.964844 119.167969 185.757812 C 117.492188 184.910156 116.722656 183.421875 117.042969 181.882812 C 117.492188 179.785156 119.757812 178.519531 121.746094 179.46875 C 126.429688 181.703125 131.070312 184.050781 135.695312 186.417969 C 137.144531 187.15625 137.742188 188.753906 137.351562 190.210938 C 136.964844 191.71875 135.644531 192.738281 133.925781 192.757812 " fill-opacity="1" fill-rule="nonzero"/></g><path fill="#ffffff" d="M 164.683594 161.902344 C 164.664062 163.71875 163.644531 165.039062 162.136719 165.4375 C 160.589844 165.855469 159.03125 165.136719 158.191406 163.511719 C 156.265625 159.726562 154.386719 155.929688 152.492188 152.136719 C 152.132812 151.417969 151.761719 150.71875 151.441406 149.988281 C 150.664062 148.171875 151.261719 146.34375 152.898438 145.476562 C 154.539062 144.609375 156.535156 145.105469 157.433594 146.835938 C 159.820312 151.449219 162.117188 156.109375 164.414062 160.773438 C 164.621094 161.183594 164.632812 161.683594 164.683594 161.902344 " fill-opacity="1" fill-rule="nonzero"/><path fill="#ffffff" d="M 191.992188 161.960938 C 191.972656 161.414062 192.203125 160.824219 192.492188 160.246094 C 194.628906 155.980469 196.746094 151.707031 198.894531 147.441406 C 199.980469 145.285156 201.878906 144.515625 203.714844 145.445312 C 205.5625 146.386719 206.074219 148.320312 204.984375 150.507812 C 202.847656 154.832031 200.679688 159.144531 198.503906 163.449219 C 197.675781 165.085938 196.148438 165.835938 194.589844 165.457031 C 193.011719 165.066406 191.984375 163.710938 191.992188 161.960938 " fill-opacity="1" fill-rule="nonzero"/><path fill="#ffffff" d="M 222.679688 192.757812 C 221.0625 192.777344 219.683594 191.730469 219.292969 190.160156 C 218.925781 188.644531 219.613281 187.105469 221.160156 186.308594 C 224.316406 184.679688 227.511719 183.121094 230.6875 181.535156 C 232.015625 180.863281 233.332031 180.175781 234.679688 179.558594 C 236.527344 178.707031 238.464844 179.355469 239.316406 181.042969 C 240.171875 182.722656 239.542969 184.699219 237.726562 185.628906 C 233.234375 187.925781 228.71875 190.140625 224.214844 192.398438 C 223.726562 192.648438 223.21875 192.746094 222.679688 192.757812 " fill-opacity="1" fill-rule="nonzero"/><path fill="#ffffff" d="M 198.773438 209.082031 C 198.613281 199.796875 191.761719 190.628906 182.507812 187.296875 C 180.179688 186.457031 177.792969 186.007812 175.335938 185.976562 C 173.050781 185.957031 171.574219 187.296875 171.554688 189.363281 C 171.53125 191.378906 172.859375 192.65625 175.117188 192.765625 C 183.40625 193.175781 189.175781 197.46875 191.285156 204.769531 C 191.714844 206.257812 191.882812 207.785156 191.972656 209.324219 C 192.125 211.960938 193.359375 213.308594 195.566406 213.199219 C 197.644531 213.089844 198.824219 211.582031 198.773438 209.082031 " fill-opacity="1" fill-rule="nonzero"/></svg>