<svg xmlns="http://www.w3.org/2000/svg" xmlns:xlink="http://www.w3.org/1999/xlink" width="40" zoomAndPan="magnify" viewBox="0 0 30 30.000001" height="40" preserveAspectRatio="xMidYMid meet" version="1.0"><defs><clipPath id="4601ce1c8f"><path d="M 0.484375 0 L 29.515625 0 L 29.515625 29.03125 L 0.484375 29.03125 Z M 0.484375 0 " clip-rule="nonzero"/></clipPath><clipPath id="90dc433f3c"><path d="M 8 3 L 21 3 L 21 25 L 8 25 Z M 8 3 " clip-rule="nonzero"/></clipPath><clipPath id="f72de0f56d"><path d="M 4.851562 19.113281 L 16.066406 3.039062 L 27.375 10.929688 L 16.164062 27.003906 Z M 4.851562 19.113281 " clip-rule="nonzero"/></clipPath><clipPath id="6ed2e8dee1"><path d="M 4.421875 19.730469 L 16.046875 3.0625 L 28.546875 11.785156 L 16.921875 28.453125 Z M 4.421875 19.730469 " clip-rule="nonzero"/></clipPath><clipPath id="859ee607bc"><path d="M 4.890625 19.054688 L 15.914062 3.257812 L 26.980469 10.980469 L 15.960938 26.777344 Z M 4.890625 19.054688 " clip-rule="nonzero"/></clipPath><clipPath id="ebf548cb41"><path d="M 4.890625 19.054688 L 15.902344 3.273438 L 26.96875 10.996094 L 15.960938 26.777344 Z M 4.890625 19.054688 " clip-rule="nonzero"/></clipPath><clipPath id="f3ff4fa83c"><path d="M 13 8 L 17 8 L 17 28 L 13 28 Z M 13 8 " clip-rule="nonzero"/></clipPath><clipPath id="d7a392a6bd"><path d="M 4.851562 19.113281 L 16.066406 3.039062 L 27.375 10.929688 L 16.164062 27.003906 Z M 4.851562 19.113281 " clip-rule="nonzero"/></clipPath><clipPath id="c38628c503"><path d="M 4.421875 19.730469 L 16.046875 3.0625 L 28.546875 11.785156 L 16.921875 28.453125 Z M 4.421875 19.730469 " clip-rule="nonzero"/></clipPath><clipPath id="f9a69c0922"><path d="M 6.433594 21.125 L 15.523438 8.09375 L 25.789062 15.253906 L 16.699219 28.285156 Z M 6.433594 21.125 " clip-rule="nonzero"/></clipPath><clipPath id="e11989d6a1"><path d="M 6.433594 21.125 L 15.523438 8.09375 L 25.777344 15.246094 L 16.683594 28.277344 Z M 6.433594 21.125 " clip-rule="nonzero"/></clipPath><clipPath id="4c0b7e1cdd"><path d="M 13 11 L 18 11 L 18 17 L 13 17 Z M 13 11 " clip-rule="nonzero"/></clipPath><clipPath id="1d2224deff"><path d="M 4.851562 19.113281 L 16.066406 3.039062 L 27.375 10.929688 L 16.164062 27.003906 Z M 4.851562 19.113281 " clip-rule="nonzero"/></clipPath><clipPath id="bb0a46513a"><path d="M 4.421875 19.730469 L 16.046875 3.0625 L 28.546875 11.785156 L 16.921875 28.453125 Z M 4.421875 19.730469 " clip-rule="nonzero"/></clipPath><clipPath id="f74f085449"><path d="M 13 15 L 19 15 L 19 21 L 13 21 Z M 13 15 " clip-rule="nonzero"/></clipPath><clipPath id="5de74f69ed"><path d="M 4.851562 19.113281 L 16.066406 3.039062 L 27.375 10.929688 L 16.164062 27.003906 Z M 4.851562 19.113281 " clip-rule="nonzero"/></clipPath><clipPath id="c0ce2e7523"><path d="M 4.421875 19.730469 L 16.046875 3.0625 L 28.546875 11.785156 L 16.921875 28.453125 Z M 4.421875 19.730469 " clip-rule="nonzero"/></clipPath><clipPath id="f081a7963e"><path d="M 11 11 L 14 11 L 14 15 L 11 15 Z M 11 11 " clip-rule="nonzero"/></clipPath><clipPath id="171eb73075"><path d="M 4.851562 19.113281 L 16.066406 3.039062 L 27.375 10.929688 L 16.164062 27.003906 Z M 4.851562 19.113281 " clip-rule="nonzero"/></clipPath><clipPath id="46fc97b429"><path d="M 4.421875 19.730469 L 16.046875 3.0625 L 28.546875 11.785156 L 16.921875 28.453125 Z M 4.421875 19.730469 " clip-rule="nonzero"/></clipPath><clipPath id="0ab3c2038e"><path d="M 10 15 L 14 15 L 14 20 L 10 20 Z M 10 15 " clip-rule="nonzero"/></clipPath><clipPath id="b720c1ea44"><path d="M 4.851562 19.113281 L 16.066406 3.039062 L 27.375 10.929688 L 16.164062 27.003906 Z M 4.851562 19.113281 " clip-rule="nonzero"/></clipPath><clipPath id="a55a624c62"><path d="M 4.421875 19.730469 L 16.046875 3.0625 L 28.546875 11.785156 L 16.921875 28.453125 Z M 4.421875 19.730469 " clip-rule="nonzero"/></clipPath><clipPath id="3242f64683"><path d="M 9.519531 13 L 12 13 L 12 15 L 9.519531 15 Z M 9.519531 13 " clip-rule="nonzero"/></clipPath><clipPath id="dc91eea04d"><path d="M 12 11.179688 L 14 11.179688 L 14 13 L 12 13 Z M 12 11.179688 " clip-rule="nonzero"/></clipPath><clipPath id="19695591c1"><path d="M 15 11.179688 L 17 11.179688 L 17 13 L 15 13 Z M 15 11.179688 " clip-rule="nonzero"/></clipPath><clipPath id="c0029c8d4e"><path d="M 17 13 L 18.957031 13 L 18.957031 15 L 17 15 Z M 17 13 " clip-rule="nonzero"/></clipPath></defs><g clip-path="url(#4601ce1c8f)"><path fill="#ffffff" d="M 0.484375 0 L 29.515625 0 L 29.515625 29.03125 L 0.484375 29.03125 Z M 0.484375 0 " fill-opacity="1" fill-rule="nonzero"/><path fill="#ffffff" d="M 0.484375 0 L 29.515625 0 L 29.515625 29.03125 L 0.484375 29.03125 Z M 0.484375 0 " fill-opacity="1" fill-rule="nonzero"/></g><g clip-path="url(#90dc433f3c)"><g clip-path="url(#f72de0f56d)"><g clip-path="url(#6ed2e8dee1)"><g clip-path="url(#859ee607bc)"><g clip-path="url(#ebf548cb41)"><path fill="#558b2f" d="M 16.535156 3.714844 C 16.820312 7.824219 19.105469 11.417969 19.785156 14.320312 C 24.121094 32.757812 -5 24.558594 16.535156 3.714844 " fill-opacity="1" fill-rule="evenodd"/></g></g></g></g></g><g clip-path="url(#f3ff4fa83c)"><g clip-path="url(#d7a392a6bd)"><g clip-path="url(#c38628c503)"><g clip-path="url(#f9a69c0922)"><g clip-path="url(#e11989d6a1)"><path fill="#558b2f" d="M 15.824219 27.675781 C 14.382812 23.5625 12.46875 19.714844 13.3125 14.542969 C 13.652344 12.449219 13.589844 11.9375 14.402344 9.890625 L 14.394531 9.914062 C 14.804688 9.117188 15.082031 8.855469 15.625 8.191406 C 15.3125 8.816406 15.554688 8.386719 15.09375 9.085938 C 13.984375 10.769531 13.953125 12.660156 13.691406 14.597656 C 12.960938 20.050781 15.222656 23.621094 16.761719 28.167969 L 15.824219 27.675781 " fill-opacity="1" fill-rule="evenodd"/></g></g></g></g></g><g clip-path="url(#4c0b7e1cdd)"><g clip-path="url(#1d2224deff)"><g clip-path="url(#bb0a46513a)"><path fill="#558b2f" d="M 13.167969 16.195312 C 13.324219 15.894531 13.492188 15.589844 13.679688 15.285156 C 14.621094 13.761719 14.738281 13.339844 16.03125 12.003906 L 16.019531 12.019531 C 16.597656 11.527344 16.898438 11.414062 17.535156 11.074219 C 17.089844 11.457031 17.417969 11.199219 16.832031 11.597656 C 15.421875 12.554688 14.789062 14.023438 13.960938 15.453125 C 13.78125 15.765625 13.617188 16.078125 13.46875 16.386719 C 13.398438 16.285156 13.289062 16.21875 13.167969 16.195312 " fill-opacity="1" fill-rule="evenodd"/></g></g></g><g clip-path="url(#f74f085449)"><g clip-path="url(#5de74f69ed)"><g clip-path="url(#c0ce2e7523)"><path fill="#558b2f" d="M 13.410156 20.339844 C 13.421875 20.324219 13.429688 20.304688 13.441406 20.289062 C 14.554688 18.484375 14.695312 17.984375 16.226562 16.40625 L 16.207031 16.421875 C 16.894531 15.839844 17.246094 15.707031 18.003906 15.300781 C 17.476562 15.757812 17.863281 15.453125 17.171875 15.921875 C 15.503906 17.054688 14.753906 18.792969 13.773438 20.484375 L 13.753906 20.519531 C 13.664062 20.421875 13.542969 20.359375 13.410156 20.339844 " fill-opacity="1" fill-rule="evenodd"/></g></g></g><g clip-path="url(#f081a7963e)"><g clip-path="url(#171eb73075)"><g clip-path="url(#46fc97b429)"><path fill="#558b2f" d="M 13.71875 14.078125 C 13.636719 13.863281 13.550781 13.65625 13.449219 13.453125 C 12.957031 12.433594 12.90625 12.101562 12.191406 11.375 L 12.199219 11.382812 C 11.875 11.148438 11.703125 11.152344 11.335938 11.074219 C 11.585938 11.257812 11.398438 11.144531 11.730469 11.292969 C 12.53125 11.644531 12.84375 12.722656 13.273438 13.695312 C 13.371094 13.910156 13.453125 14.128906 13.527344 14.351562 C 13.574219 14.238281 13.644531 14.140625 13.71875 14.078125 " fill-opacity="1" fill-rule="evenodd"/></g></g></g><g clip-path="url(#0ab3c2038e)"><g clip-path="url(#b720c1ea44)"><g clip-path="url(#a55a624c62)"><path fill="#558b2f" d="M 13.542969 19.128906 C 13.535156 19.117188 13.527344 19.101562 13.523438 19.089844 C 12.820312 17.652344 12.742188 17.21875 11.738281 16.082031 L 11.75 16.097656 C 11.296875 15.707031 11.054688 15.660156 10.542969 15.449219 C 10.890625 15.757812 10.632812 15.558594 11.097656 15.84375 C 12.21875 16.527344 12.667969 17.984375 13.28125 19.347656 L 13.292969 19.375 C 13.359375 19.265625 13.449219 19.175781 13.542969 19.128906 " fill-opacity="1" fill-rule="evenodd"/></g></g></g><path fill="#ffffff" d="M 11.652344 19.652344 C 13.40625 19.652344 15.160156 19.652344 16.917969 19.652344 C 16.917969 19.484375 16.917969 19.320312 16.917969 19.148438 C 15.164062 19.148438 13.410156 19.148438 11.652344 19.148438 C 11.652344 19.316406 11.652344 19.480469 11.652344 19.652344 Z M 16.390625 18.597656 C 16.390625 18.597656 16.398438 16.824219 16.390625 15.976562 C 16.375 15.078125 15.976562 14.40625 15.144531 14.046875 C 13.976562 13.539062 12.519531 14.117188 12.222656 15.527344 C 12.191406 15.664062 12.179688 15.804688 12.179688 15.945312 C 12.179688 16.796875 12.1875 18.601562 12.1875 18.601562 C 13.578125 18.601562 16.390625 18.597656 16.390625 18.597656 Z M 15.867188 20.269531 C 15.867188 20.9375 15.867188 21.605469 15.867188 22.269531 C 15.867188 22.714844 15.867188 23.160156 15.867188 23.605469 C 15.867188 23.746094 15.785156 23.847656 15.660156 23.878906 C 15.546875 23.90625 15.433594 23.851562 15.371094 23.742188 C 15.335938 23.679688 15.339844 23.613281 15.339844 23.550781 C 15.339844 22.46875 15.339844 21.390625 15.339844 20.3125 C 15.339844 20.277344 15.351562 20.238281 15.328125 20.207031 C 14.628906 20.207031 13.933594 20.207031 13.230469 20.207031 C 13.230469 20.503906 13.230469 20.792969 13.230469 21.082031 C 13.230469 21.738281 13.226562 22.398438 13.230469 23.054688 C 13.230469 23.179688 13.191406 23.273438 13.082031 23.332031 C 12.898438 23.421875 12.703125 23.285156 12.703125 23.066406 C 12.703125 22.457031 12.703125 21.847656 12.703125 21.238281 C 12.703125 20.894531 12.703125 20.550781 12.703125 20.195312 C 12.652344 20.195312 12.613281 20.195312 12.574219 20.195312 C 12.195312 20.195312 11.816406 20.195312 11.4375 20.195312 C 11.21875 20.195312 11.125 20.09375 11.121094 19.878906 C 11.121094 19.550781 11.121094 19.226562 11.125 18.902344 C 11.125 18.71875 11.222656 18.617188 11.402344 18.613281 C 11.480469 18.613281 11.558594 18.613281 11.648438 18.613281 C 11.648438 18.558594 11.648438 18.511719 11.648438 18.46875 C 11.648438 17.859375 11.644531 17.25 11.648438 16.640625 C 11.652344 16.269531 11.628906 15.902344 11.691406 15.53125 C 11.898438 14.300781 13.070312 13.316406 14.320312 13.339844 C 15.734375 13.363281 16.925781 14.578125 16.925781 15.992188 C 16.921875 16.828125 16.933594 18.613281 16.933594 18.613281 C 16.933594 18.613281 17.070312 18.613281 17.136719 18.613281 C 17.355469 18.617188 17.449219 18.707031 17.449219 18.929688 C 17.449219 19.234375 17.449219 19.539062 17.449219 19.84375 C 17.449219 20.109375 17.359375 20.195312 17.089844 20.195312 C 16.6875 20.195312 16.285156 20.195312 15.867188 20.195312 C 15.867188 20.230469 15.867188 20.25 15.867188 20.269531 " fill-opacity="1" fill-rule="nonzero"/><g clip-path="url(#3242f64683)"><path fill="#ffffff" d="M 10.851562 14.921875 C 10.8125 14.921875 10.765625 14.910156 10.722656 14.886719 C 10.382812 14.71875 10.046875 14.550781 9.710938 14.378906 C 9.578125 14.3125 9.519531 14.199219 9.546875 14.078125 C 9.578125 13.917969 9.753906 13.820312 9.910156 13.894531 C 10.269531 14.066406 10.628906 14.246094 10.988281 14.429688 C 11.101562 14.488281 11.144531 14.609375 11.117188 14.722656 C 11.085938 14.839844 10.984375 14.917969 10.851562 14.921875 " fill-opacity="1" fill-rule="nonzero"/></g><g clip-path="url(#dc91eea04d)"><path fill="#ffffff" d="M 13.230469 12.535156 C 13.226562 12.675781 13.148438 12.777344 13.03125 12.808594 C 12.914062 12.839844 12.792969 12.785156 12.726562 12.660156 C 12.578125 12.367188 12.433594 12.074219 12.285156 11.777344 C 12.257812 11.722656 12.230469 11.667969 12.207031 11.613281 C 12.144531 11.472656 12.191406 11.332031 12.320312 11.265625 C 12.445312 11.195312 12.597656 11.234375 12.667969 11.367188 C 12.855469 11.726562 13.03125 12.085938 13.207031 12.445312 C 13.226562 12.480469 13.226562 12.515625 13.230469 12.535156 " fill-opacity="1" fill-rule="nonzero"/></g><g clip-path="url(#19695591c1)"><path fill="#ffffff" d="M 15.339844 12.539062 C 15.339844 12.496094 15.359375 12.449219 15.378906 12.40625 C 15.546875 12.078125 15.710938 11.746094 15.875 11.417969 C 15.960938 11.25 16.105469 11.191406 16.25 11.261719 C 16.390625 11.335938 16.429688 11.484375 16.347656 11.652344 C 16.179688 11.988281 16.011719 12.320312 15.84375 12.652344 C 15.78125 12.78125 15.664062 12.839844 15.542969 12.808594 C 15.421875 12.777344 15.339844 12.675781 15.339844 12.539062 " fill-opacity="1" fill-rule="nonzero"/></g><g clip-path="url(#c0029c8d4e)"><path fill="#ffffff" d="M 17.714844 14.921875 C 17.589844 14.921875 17.484375 14.839844 17.453125 14.71875 C 17.425781 14.601562 17.476562 14.484375 17.597656 14.421875 C 17.839844 14.296875 18.089844 14.175781 18.335938 14.050781 C 18.4375 14 18.539062 13.949219 18.644531 13.898438 C 18.785156 13.835938 18.9375 13.882812 19 14.015625 C 19.066406 14.144531 19.019531 14.296875 18.878906 14.371094 C 18.53125 14.546875 18.183594 14.71875 17.832031 14.894531 C 17.796875 14.914062 17.757812 14.921875 17.714844 14.921875 " fill-opacity="1" fill-rule="nonzero"/></g><path fill="#ffffff" d="M 15.867188 16.183594 C 15.855469 15.464844 15.324219 14.757812 14.609375 14.5 C 14.429688 14.433594 14.242188 14.398438 14.054688 14.394531 C 13.875 14.394531 13.761719 14.5 13.761719 14.65625 C 13.757812 14.8125 13.863281 14.914062 14.035156 14.921875 C 14.675781 14.953125 15.125 15.285156 15.285156 15.851562 C 15.320312 15.964844 15.332031 16.082031 15.339844 16.203125 C 15.351562 16.40625 15.449219 16.511719 15.617188 16.5 C 15.777344 16.492188 15.871094 16.375 15.867188 16.183594 " fill-opacity="1" fill-rule="nonzero"/></svg>